
      <svg data-logo="logo" xmlns="http://www.w3.org/2000/svg" viewBox="0 0 431 43">
        <g id="logogram" transform="translate(0, 1) rotate(0)"><path d="M37.5569 2.04585C38.4821 1.08338 39.7385 0.542663 41.0469 0.542664C46.9335 0.542664 52.4811 0.542667 57.9442 0.542678C68.932 0.542701 74.4342 14.3629 66.6646 22.4456L49.7407 40.0517C48.9637 40.86 47.6352 40.2875 47.6352 39.1444V23.6376L49.591 21.6029C51.145 19.9864 50.0444 17.2223 47.8468 17.2223H22.9684L37.5569 2.04585Z" fill="#3A04FF"/><path d="M33.0467 38.8142C32.1215 39.7767 30.8651 40.3174 29.5567 40.3174C23.6701 40.3174 18.1225 40.3174 12.6594 40.3174C1.67159 40.3173 -3.83061 26.4972 3.93897 18.4144L20.8629 0.808361C21.6399 8.48472e-05 22.9684 0.57254 22.9684 1.71562L22.9684 17.2223L21.0126 19.2571C19.4586 20.8737 20.5592 23.6377 22.7568 23.6377L47.6352 23.6376L33.0467 38.8142Z" fill="#3A04FF"/></g>
        <g id="logotype" transform="translate(77, 7)"><path fill="#121212" d="M16.84 0.92L24.64 0.92L34.76 29L27.64 29L19.40 4.48L22.04 4.48L13.76 29L6.68 29L16.84 0.92ZM11.04 24.04L12.72 18.80L28.08 18.80L29.80 24.04L11.04 24.04ZM49.32 29L36.40 29L36.40 23.60L39.48 23.60L39.48 6.32L36.40 6.32L36.40 0.92L49.32 0.92L49.32 6.32L46.24 6.32L46.24 23.60L49.32 23.60L49.32 29ZM66.68 29L59.92 29L59.92 0.92L71.36 0.92Q74.68 0.92 76.96 2Q79.24 3.08 80.46 5.02Q81.68 6.96 81.68 9.52L81.68 9.52Q81.68 12.12 80.08 14.10Q78.48 16.08 75.64 16.76L75.64 16.76Q77.72 17.44 79.32 19.12Q80.92 20.80 82 23.30Q83.08 25.80 83.44 29L83.44 29L76.16 29Q75.96 26.24 75.12 24.08Q74.28 21.92 72.52 20.60L72.52 20.60Q71.44 19.76 70 19.30Q68.56 18.84 66.68 18.80L66.68 18.80L66.68 29ZM66.68 6.40L66.68 13.40L70.96 13.40Q72.84 13.40 73.82 12.38Q74.80 11.36 74.80 9.80L74.80 9.80Q74.80 8.28 73.80 7.34Q72.80 6.40 70.96 6.40L70.96 6.40L66.68 6.40ZM103.32 0.92L103.32 6.36L92.92 6.36L92.92 12.12L102.12 12.12L102.12 17.36L92.92 17.36L92.92 23.56L103.32 23.56L103.32 29L86.16 29L86.16 0.92L103.32 0.92ZM116.88 29.28L116.88 29.28Q113.88 29.28 111.52 28.26Q109.16 27.24 107.64 25.38Q106.12 23.52 105.60 21.04L105.60 21.04L112.20 19.56Q112.64 21.52 113.80 22.64Q114.96 23.76 116.60 23.76L116.60 23.76Q118.32 23.76 119.26 23.04Q120.20 22.32 120.20 21.12L120.20 21.12Q120.20 20.04 119.44 19.34Q118.68 18.64 117.44 18.16Q116.20 17.68 114.70 17.20Q113.20 16.72 111.70 16.12Q110.20 15.52 108.94 14.62Q107.68 13.72 106.92 12.36Q106.16 11 106.16 9L106.16 9Q106.16 6.36 107.44 4.48Q108.72 2.60 111.02 1.62Q113.32 0.64 116.36 0.64L116.36 0.64Q119.12 0.64 121.28 1.56Q123.44 2.48 124.80 4.10Q126.16 5.72 126.56 7.92L126.56 7.92L120 9.64Q119.68 7.92 118.68 7.02Q117.68 6.12 116.20 6.12L116.20 6.12Q115.32 6.12 114.60 6.42Q113.88 6.72 113.46 7.28Q113.04 7.84 113.04 8.68L113.04 8.68Q113.04 9.72 113.80 10.40Q114.56 11.08 115.84 11.58Q117.12 12.08 118.64 12.54Q120.16 13 121.66 13.60Q123.16 14.20 124.42 15.10Q125.68 16 126.46 17.34Q127.24 18.68 127.24 20.68L127.24 20.68Q127.24 23.04 125.90 24.98Q124.56 26.92 122.24 28.10Q119.92 29.28 116.88 29.28ZM129.96 17.72L129.96 0.92L136.68 0.92L136.68 17.76Q136.68 20.28 137.94 21.66Q139.20 23.04 141.64 23.04L141.64 23.04Q144.08 23.04 145.36 21.66Q146.64 20.28 146.64 17.76L146.64 17.76L146.64 0.92L153.40 0.92L153.40 17.72Q153.40 21.56 151.76 24.14Q150.12 26.72 147.44 28Q144.76 29.28 141.52 29.28L141.52 29.28Q138.28 29.28 135.66 28Q133.04 26.72 131.50 24.14Q129.96 21.56 129.96 17.72L129.96 17.72ZM156.84 29L156.84 0.92L164.80 0.92L174.08 23.72L171.32 24.12L180.64 0.92L188.56 0.92L188.56 29L181.80 29L181.80 5.76L184.04 6.12L175.44 29L170 29L161.40 6.12L163.60 5.76L163.60 29L156.84 29ZM209.28 0.92L209.28 6.36L198.88 6.36L198.88 12.12L208.08 12.12L208.08 17.36L198.88 17.36L198.88 23.56L209.28 23.56L209.28 29L192.12 29L192.12 0.92L209.28 0.92ZM219.48 29L219.48 0.92L227.44 0.92L236.72 23.72L233.96 24.12L243.28 0.92L251.20 0.92L251.20 29L244.44 29L244.44 5.76L246.68 6.12L238.08 29L232.64 29L224.04 6.12L226.24 5.76L226.24 29L219.48 29ZM263.12 0.92L270.92 0.92L281.04 29L273.92 29L265.68 4.48L268.32 4.48L260.04 29L252.96 29L263.12 0.92ZM257.32 24.04L259 18.80L274.36 18.80L276.08 24.04L257.32 24.04ZM289.56 29L282.80 29L282.80 0.92L289.56 0.92L289.56 11.96Q292.40 11.96 294.48 10.62Q296.56 9.28 297.78 6.82Q299 4.36 299.20 0.92L299.20 0.92L306.48 0.92Q306.28 3.36 305.50 5.58Q304.72 7.80 303.44 9.62Q302.16 11.44 300.48 12.76Q298.80 14.08 296.92 14.76L296.92 14.76Q299.64 15.40 301.84 17.34Q304.04 19.28 305.48 22.22Q306.92 25.16 307.36 29L307.36 29L300.08 29Q299.88 25.32 298.52 22.78Q297.16 20.24 294.88 18.88Q292.60 17.52 289.56 17.52L289.56 17.52L289.56 29ZM326.20 0.92L326.20 6.36L315.80 6.36L315.80 12.12L325 12.12L325 17.36L315.80 17.36L315.80 23.56L326.20 23.56L326.20 29L309.04 29L309.04 0.92L326.20 0.92ZM336.00 29L329.24 29L329.24 0.92L340.68 0.92Q344.00 0.92 346.28 2Q348.56 3.08 349.78 5.02Q351.00 6.96 351.00 9.52L351.00 9.52Q351.00 12.12 349.40 14.10Q347.80 16.08 344.96 16.76L344.96 16.76Q347.04 17.44 348.64 19.12Q350.24 20.80 351.32 23.30Q352.40 25.80 352.76 29L352.76 29L345.48 29Q345.28 26.24 344.44 24.08Q343.60 21.92 341.84 20.60L341.84 20.60Q340.76 19.76 339.32 19.30Q337.88 18.84 336.00 18.80L336.00 18.80L336.00 29ZM336.00 6.40L336.00 13.40L340.28 13.40Q342.16 13.40 343.14 12.38Q344.12 11.36 344.12 9.80L344.12 9.80Q344.12 8.28 343.12 7.34Q342.12 6.40 340.28 6.40L340.28 6.40L336.00 6.40Z"/></g>
        
      </svg>
    